<svg width="1526" height="359" viewBox="0 0 1526 359" fill="none" xmlns="http://www.w3.org/2000/svg">
<path d="M178.981 358.306C143.752 358.306 112.663 351.081 85.7134 336.632C58.7639 322.184 37.7401 301.728 22.6418 275.265C7.54363 248.803 -0.0054726 217.551 -0.0054726 181.51C-0.0054726 155.21 4.37788 131.183 13.1446 109.429C22.0736 87.5118 34.5743 68.5984 50.6466 52.6885C66.8812 36.7786 85.9569 24.5214 107.874 15.9171C129.953 7.15034 154.061 2.76699 180.199 2.76699C208.61 2.76699 232.475 6.33861 251.794 13.4819C271.113 20.6251 288.565 30.7718 304.15 43.9218L263.726 110.403C254.31 100.662 242.946 93.4374 229.633 88.7294C216.321 83.859 201.629 81.4238 185.556 81.4238C169.647 81.4238 155.441 83.7778 142.941 88.4859C130.602 93.0316 120.05 99.6066 111.283 108.211C102.679 116.815 96.1036 127.205 91.5579 139.381C87.0122 151.557 84.7393 165.195 84.7393 180.293C84.7393 201.073 88.798 218.85 96.9153 233.624C105.195 248.397 116.965 259.761 132.226 267.716C147.486 275.509 165.75 279.405 187.018 279.405C202.278 279.405 217.376 277.132 232.312 272.587C247.41 267.879 261.697 260.33 275.172 249.939L312.187 317.881C296.439 330.057 277.607 339.879 255.69 347.347C233.773 354.653 208.204 358.306 178.981 358.306ZM471.81 358.306C444.536 358.306 420.59 352.867 399.972 341.99C379.354 330.95 363.281 315.608 351.755 295.965C340.228 276.158 334.465 253.024 334.465 226.561C334.465 207.405 337.793 189.79 344.449 173.718C351.268 157.645 360.684 143.765 372.697 132.076C384.873 120.387 399.16 111.377 415.557 105.045C432.116 98.5514 450.299 95.3044 470.105 95.3044C491.86 95.3044 511.26 99.2007 528.306 106.993C545.353 114.624 559.396 125.339 570.435 139.138C581.637 152.775 589.349 168.929 593.57 187.598C597.791 206.106 597.953 226.237 594.057 247.991H407.521C407.683 257.732 410.605 266.255 416.287 273.561C421.97 280.866 429.762 286.63 439.665 290.851C449.568 294.909 461.095 296.939 474.245 296.939C488.856 296.939 502.737 295.072 515.887 291.338C529.037 287.441 541.619 281.516 553.632 273.561L578.715 327.622C571.085 333.467 561.182 338.743 549.006 343.451C536.992 347.997 524.167 351.568 510.53 354.166C497.055 356.926 484.148 358.306 471.81 358.306ZM412.391 194.173H518.079C517.754 181.673 513.127 171.688 504.198 164.22C495.269 156.753 483.174 153.019 467.914 153.019C452.491 153.019 439.665 156.753 429.438 164.22C419.372 171.688 413.69 181.673 412.391 194.173ZM643.369 351V0.331795H723.244V351H643.369ZM883.13 357.819C860.077 357.819 838.971 354.977 819.815 349.295C800.82 343.613 784.423 335.577 770.624 325.187L795.463 270.395C808.937 278.999 823.386 285.818 838.809 290.851C854.232 295.721 868.843 298.156 882.643 298.156C895.306 298.156 904.965 296.452 911.622 293.042C918.278 289.471 921.606 284.357 921.606 277.701C921.606 271.856 918.521 267.554 912.352 264.794C906.345 262.034 894.494 259.031 876.798 255.784C843.355 250.102 818.841 240.767 803.255 227.779C787.832 214.629 780.121 196.69 780.121 173.961C780.121 157.727 784.585 143.521 793.515 131.345C802.444 119.169 814.782 109.753 830.529 103.097C846.439 96.2785 864.703 92.8692 885.321 92.8692C905.452 92.8692 924.447 95.5479 942.305 100.905C960.325 106.263 975.748 113.731 988.574 123.309L964.465 178.101C957.809 173.068 950.098 168.604 941.331 164.708C932.727 160.811 923.797 157.808 914.544 155.697C905.29 153.587 896.28 152.532 887.513 152.532C876.636 152.532 867.788 154.236 860.969 157.645C854.313 160.892 850.985 165.438 850.985 171.283C850.985 177.289 853.907 181.754 859.752 184.676C865.596 187.598 877.285 190.926 894.819 194.66C930.21 201.804 955.293 211.463 970.066 223.639C984.84 235.653 992.226 252.537 992.226 274.291C992.226 291.175 987.6 305.868 978.346 318.368C969.254 330.869 956.51 340.61 940.113 347.591C923.879 354.409 904.884 357.819 883.13 357.819ZM1162.91 358.306C1135.8 358.306 1111.86 352.38 1091.08 340.529C1070.3 328.515 1053.98 312.524 1042.13 292.555C1030.44 272.587 1024.6 250.67 1024.6 226.805C1024.6 209.434 1027.92 192.875 1034.58 177.127C1041.4 161.217 1050.98 147.174 1063.32 134.998C1075.65 122.66 1090.26 113 1107.15 106.019C1124.03 98.876 1142.62 95.3044 1162.91 95.3044C1190.03 95.3044 1213.97 101.311 1234.75 113.325C1255.53 125.176 1271.77 141.086 1283.46 161.055C1295.15 181.023 1300.99 202.94 1300.99 226.805C1300.99 244.176 1297.66 260.817 1291.01 276.727C1284.35 292.474 1274.85 306.436 1262.51 318.612C1250.18 330.788 1235.56 340.447 1218.68 347.591C1201.8 354.734 1183.21 358.306 1162.91 358.306ZM1162.91 289.633C1174.28 289.633 1184.51 287.117 1193.6 282.084C1202.69 276.889 1209.83 269.583 1215.03 260.167C1220.22 250.751 1222.82 239.63 1222.82 226.805C1222.82 213.817 1220.22 202.697 1215.03 193.443C1210 184.027 1202.93 176.802 1193.84 171.77C1184.75 166.575 1174.44 163.977 1162.91 163.977C1151.39 163.977 1141.08 166.575 1131.99 171.77C1122.9 176.802 1115.75 184.027 1110.56 193.443C1105.36 202.697 1102.77 213.817 1102.77 226.805C1102.77 239.63 1105.36 250.751 1110.56 260.167C1115.92 269.583 1123.14 276.889 1132.23 282.084C1141.32 287.117 1151.55 289.633 1162.91 289.633ZM1347.77 351V102.61H1427.64V131.589C1435.11 118.763 1445.01 109.429 1457.35 103.584C1469.69 97.7396 1483.08 94.8174 1497.53 94.8174C1503.05 94.8174 1508 95.1421 1512.39 95.7915C1516.77 96.4409 1521.07 97.1714 1525.29 97.9832L1515.8 180.049C1510.28 178.101 1504.43 176.559 1498.26 175.422C1492.09 174.124 1485.93 173.474 1479.76 173.474C1464.66 173.474 1452.16 177.858 1442.25 186.624C1432.51 195.229 1427.64 207.892 1427.64 224.613V351H1347.77Z" fill="#450303"/>
</svg>
